<svg width="46" height="36" viewBox="0 0 46 36" fill="none" xmlns="http://www.w3.org/2000/svg">
<path fill-rule="evenodd" clip-rule="evenodd" d="M6.70841 7.5C6.20008 7.5 5.71257 7.65804 5.35313 7.93934C4.99368 8.22064 4.79175 8.60218 4.79175 9C4.79175 9.39782 4.99368 9.77936 5.35313 10.0607C5.71257 10.342 6.20008 10.5 6.70841 10.5H39.2917C39.8001 10.5 40.2876 10.342 40.647 10.0607C41.0065 9.77936 41.2084 9.39782 41.2084 9C41.2084 8.60218 41.0065 8.22064 40.647 7.93934C40.2876 7.65804 39.8001 7.5 39.2917 7.5H6.70841ZM4.79175 18C4.79175 17.6022 4.99368 17.2206 5.35313 16.9393C5.71257 16.658 6.20008 16.5 6.70841 16.5H39.2917C39.8001 16.5 40.2876 16.658 40.647 16.9393C41.0065 17.2206 41.2084 17.6022 41.2084 18C41.2084 18.3978 41.0065 18.7794 40.647 19.0607C40.2876 19.342 39.8001 19.5 39.2917 19.5H6.70841C6.20008 19.5 5.71257 19.342 5.35313 19.0607C4.99368 18.7794 4.79175 18.3978 4.79175 18ZM4.79175 27.0015C4.79175 26.6037 4.99368 26.2221 5.35313 25.9408C5.71257 25.6595 6.20008 25.5015 6.70841 25.5015H39.2917C39.8001 25.5015 40.2876 25.6595 40.647 25.9408C41.0065 26.2221 41.2084 26.6037 41.2084 27.0015C41.2084 27.3993 41.0065 27.7809 40.647 28.0622C40.2876 28.3435 39.8001 28.5015 39.2917 28.5015H6.70841C6.20008 28.5015 5.71257 28.3435 5.35313 28.0622C4.99368 27.7809 4.79175 27.3993 4.79175 27.0015Z" fill="white"/>
</svg>
